<?xml version="1.0" encoding="UTF-8" standalone="no"?>
<!DOCTYPE svg PUBLIC "-//W3C//DTD SVG 1.1//EN"
 "http://www.w3.org/Graphics/SVG/1.1/DTD/svg11.dtd">
<!-- Generated by graphviz version 2.38.0 (20140413.2041)
 -->
<!-- Title: %3 Pages: 1 -->
<svg width="684pt" height="177pt"
 viewBox="0.00 0.00 683.68 177.20" xmlns="http://www.w3.org/2000/svg" xmlns:xlink="http://www.w3.org/1999/xlink">
<g id="graph0" class="graph" transform="scale(1 1) rotate(0) translate(4 173.196)">
<title>%3</title>
<polygon fill="white" stroke="none" points="-4,4 -4,-173.196 679.679,-173.196 679.679,4 -4,4"/>
<!-- &#45;1 -->
<g id="node1" class="node"><title>&#45;1</title>
<polygon fill="lightgray" stroke="black" points="24,-99.4472 0,-99.4472 0,-81.4472 24,-81.4472 24,-99.4472"/>
<text text-anchor="middle" x="12" y="-88.2472" font-family="Times,serif" font-size="9.00">&#45;1</text>
</g>
<!-- 1 -->
<g id="node7" class="node"><title>1</title>
<ellipse fill="lightblue" stroke="black" cx="158" cy="-14.8492" rx="14.7" ry="14.7"/>
<text text-anchor="middle" x="158" y="-12.6492" font-family="Times,serif" font-size="9.00">1</text>
</g>
<!-- &#45;1&#45;&gt;1 -->
<g id="edge25" class="edge"><title>&#45;1&#45;&gt;1</title>
<path fill="none" stroke="red" stroke-width="0.285448" d="M19.5995,-81.1798C24.4929,-76.2111 31.1928,-70.0325 38,-65.6985 68.9711,-45.9801 109.063,-31.1859 134.161,-23.0243"/>
<polygon fill="red" stroke="red" stroke-width="0.285448" points="135.449,-26.2881 143.93,-19.9376 133.34,-19.6135 135.449,-26.2881"/>
</g>
<!-- &#45;2 -->
<g id="node2" class="node"><title>&#45;2</title>
<polygon fill="lightgray" stroke="black" points="223,-169.196 199,-169.196 199,-151.196 223,-151.196 223,-169.196"/>
<text text-anchor="middle" x="211" y="-157.996" font-family="Times,serif" font-size="9.00">&#45;2</text>
</g>
<!-- 0 -->
<g id="node6" class="node"><title>0</title>
<ellipse fill="lightblue" stroke="black" cx="324" cy="-14.8492" rx="14.7" ry="14.7"/>
<text text-anchor="middle" x="324" y="-12.6492" font-family="Times,serif" font-size="9.00">0</text>
</g>
<!-- &#45;2&#45;&gt;0 -->
<g id="edge4" class="edge"><title>&#45;2&#45;&gt;0</title>
<path fill="none" stroke="red" stroke-width="0.675232" d="M202.033,-151.135C193.724,-143.008 181.927,-129.631 177,-115.196 169.893,-94.3766 164.183,-83.5782 177,-65.6985 204.909,-26.7644 264.937,-17.8649 299.022,-16.0618"/>
<polygon fill="red" stroke="red" stroke-width="0.675232" points="299.237,-19.5564 309.103,-15.6966 298.983,-12.561 299.237,-19.5564"/>
</g>
<!-- &#45;2&#45;&gt;1 -->
<g id="edge15" class="edge"><title>&#45;2&#45;&gt;1</title>
<path fill="none" stroke="red" stroke-width="0.224504" d="M198.841,-157.237C167.718,-151.951 86.5269,-136.352 71,-115.196 57.9837,-97.4611 59.9693,-84.732 71,-65.6985 84.4408,-42.5064 113.189,-29.1788 133.967,-22.2397"/>
<polygon fill="red" stroke="red" stroke-width="0.224504" points="135.17,-25.5318 143.704,-19.2529 133.117,-18.8396 135.17,-25.5318"/>
</g>
<!-- 2 -->
<g id="node8" class="node"><title>2</title>
<ellipse fill="lightblue" stroke="black" cx="527" cy="-14.8492" rx="14.7" ry="14.7"/>
<text text-anchor="middle" x="527" y="-12.6492" font-family="Times,serif" font-size="9.00">2</text>
</g>
<!-- &#45;2&#45;&gt;2 -->
<g id="edge7" class="edge"><title>&#45;2&#45;&gt;2</title>
<path fill="none" stroke="red" stroke-width="0.398385" d="M223.165,-153.999C242.177,-145.853 280.067,-129.527 312,-115.196 382.745,-83.4459 465.933,-44.5619 504.841,-26.284"/>
<polygon fill="red" stroke="red" stroke-width="0.398385" points="506.397,-29.4199 513.957,-21.9975 503.419,-23.0852 506.397,-29.4199"/>
</g>
<!-- 4273 -->
<g id="node10" class="node"><title>4273</title>
<ellipse fill="white" stroke="black" cx="211" cy="-90.4472" rx="25" ry="25"/>
<text text-anchor="middle" x="211" y="-88.2472" font-family="Times,serif" font-size="9.00">4273</text>
</g>
<!-- &#45;2&#45;&gt;4273 -->
<g id="edge23" class="edge"><title>&#45;2&#45;&gt;4273</title>
<path fill="none" stroke="green" stroke-width="0.2966" d="M211,-151.158C211,-144.723 211,-135.225 211,-125.689"/>
<polygon fill="green" stroke="green" stroke-width="0.2966" points="214.5,-125.468 211,-115.468 207.5,-125.469 214.5,-125.468"/>
</g>
<!-- 4278 -->
<g id="node14" class="node"><title>4278</title>
<ellipse fill="white" stroke="black" cx="278" cy="-90.4472" rx="25" ry="25"/>
<text text-anchor="middle" x="278" y="-88.2472" font-family="Times,serif" font-size="9.00">4278</text>
</g>
<!-- &#45;2&#45;&gt;4278 -->
<g id="edge9" class="edge"><title>&#45;2&#45;&gt;4278</title>
<path fill="none" stroke="red" stroke-width="0.194924" d="M218.949,-151.158C227.503,-142.508 241.53,-128.325 253.766,-115.952"/>
<polygon fill="red" stroke="red" stroke-width="0.194924" points="256.546,-118.119 261.089,-108.547 251.569,-113.196 256.546,-118.119"/>
</g>
<!-- &#45;3 -->
<g id="node3" class="node"><title>&#45;3</title>
<polygon fill="lightgray" stroke="black" points="149,-169.196 125,-169.196 125,-151.196 149,-151.196 149,-169.196"/>
<text text-anchor="middle" x="137" y="-157.996" font-family="Times,serif" font-size="9.00">&#45;3</text>
</g>
<!-- &#45;3&#45;&gt;4273 -->
<g id="edge2" class="edge"><title>&#45;3&#45;&gt;4273</title>
<path fill="none" stroke="red" stroke-width="0.409852" d="M145.779,-151.158C155.599,-142.168 171.949,-127.199 185.822,-114.499"/>
<polygon fill="red" stroke="red" stroke-width="0.409852" points="188.204,-117.063 193.216,-107.729 183.477,-111.9 188.204,-117.063"/>
</g>
<!-- 4276 -->
<g id="node12" class="node"><title>4276</title>
<ellipse fill="white" stroke="black" cx="105" cy="-90.4472" rx="25" ry="25"/>
<text text-anchor="middle" x="105" y="-88.2472" font-family="Times,serif" font-size="9.00">4276</text>
</g>
<!-- &#45;3&#45;&gt;4276 -->
<g id="edge27" class="edge"><title>&#45;3&#45;&gt;4276</title>
<path fill="none" stroke="red" stroke-width="0.453999" d="M133.204,-151.158C129.797,-143.947 124.575,-132.89 119.546,-122.242"/>
<polygon fill="red" stroke="red" stroke-width="0.453999" points="122.662,-120.645 115.226,-113.097 116.332,-123.634 122.662,-120.645"/>
</g>
<!-- &#45;4 -->
<g id="node4" class="node"><title>&#45;4</title>
<polygon fill="lightgray" stroke="black" points="362,-169.196 338,-169.196 338,-151.196 362,-151.196 362,-169.196"/>
<text text-anchor="middle" x="350" y="-157.996" font-family="Times,serif" font-size="9.00">&#45;4</text>
</g>
<!-- &#45;4&#45;&gt;0 -->
<g id="edge11" class="edge"><title>&#45;4&#45;&gt;0</title>
<path fill="none" stroke="green" stroke-width="0.863742" d="M350.494,-151.062C351.287,-134.669 352.105,-96.59 345,-65.6985 342.821,-56.2261 338.972,-46.2649 335.158,-37.7584"/>
<polygon fill="green" stroke="green" stroke-width="0.863742" points="338.244,-36.0969 330.801,-28.5573 331.918,-39.0931 338.244,-36.0969"/>
</g>
<!-- &#45;4&#45;&gt;1 -->
<g id="edge24" class="edge"><title>&#45;4&#45;&gt;1</title>
<path fill="none" stroke="green" stroke-width="0.414732" d="M349.025,-151.156C346.423,-133.203 337.667,-89.5573 312,-65.6985 275.755,-32.0067 216.507,-21.0791 183.051,-17.5399"/>
<polygon fill="green" stroke="green" stroke-width="0.414732" points="183.042,-14.0246 172.765,-16.6007 182.405,-20.9956 183.042,-14.0246"/>
</g>
<!-- 6628 -->
<g id="node9" class="node"><title>6628</title>
<ellipse fill="white" stroke="black" cx="460" cy="-90.4472" rx="25" ry="25"/>
<text text-anchor="middle" x="460" y="-88.2472" font-family="Times,serif" font-size="9.00">6628</text>
</g>
<!-- &#45;4&#45;&gt;6628 -->
<g id="edge3" class="edge"><title>&#45;4&#45;&gt;6628</title>
<path fill="none" stroke="green" stroke-width="0.334245" d="M362.192,-151.687C378.515,-141.634 408.001,-123.474 430.344,-109.712"/>
<polygon fill="green" stroke="green" stroke-width="0.334245" points="432.441,-112.532 439.12,-104.307 428.77,-106.571 432.441,-112.532"/>
</g>
<!-- &#45;4&#45;&gt;4273 -->
<g id="edge16" class="edge"><title>&#45;4&#45;&gt;4273</title>
<path fill="none" stroke="green" stroke-width="0.270121" d="M337.819,-155.174C317.659,-148.293 276.37,-133.244 244,-115.196 242.243,-114.216 240.468,-113.16 238.701,-112.057"/>
<polygon fill="green" stroke="green" stroke-width="0.270121" points="240.313,-108.925 230.052,-106.285 236.427,-114.748 240.313,-108.925"/>
</g>
<!-- 4274 -->
<g id="node11" class="node"><title>4274</title>
<ellipse fill="white" stroke="black" cx="633" cy="-90.4472" rx="25" ry="25"/>
<text text-anchor="middle" x="633" y="-88.2472" font-family="Times,serif" font-size="9.00">4274</text>
</g>
<!-- &#45;4&#45;&gt;4274 -->
<g id="edge5" class="edge"><title>&#45;4&#45;&gt;4274</title>
<path fill="none" stroke="red" stroke-width="0.445794" d="M362.009,-157.183C394.403,-151.647 486.186,-135.266 561,-115.196 573.912,-111.732 587.911,-107.279 600.102,-103.166"/>
<polygon fill="red" stroke="red" stroke-width="0.445794" points="601.531,-106.377 609.854,-99.8212 599.26,-99.7552 601.531,-106.377"/>
</g>
<!-- &#45;4&#45;&gt;4278 -->
<g id="edge8" class="edge"><title>&#45;4&#45;&gt;4278</title>
<path fill="none" stroke="red" stroke-width="0.693594" d="M341.458,-151.158C332.054,-142.31 316.496,-127.67 303.139,-115.102"/>
<polygon fill="red" stroke="red" stroke-width="0.693594" points="305.273,-112.304 295.592,-108 300.476,-117.402 305.273,-112.304"/>
</g>
<!-- &#45;5 -->
<g id="node5" class="node"><title>&#45;5</title>
<polygon fill="lightgray" stroke="black" points="618,-169.196 594,-169.196 594,-151.196 618,-151.196 618,-169.196"/>
<text text-anchor="middle" x="606" y="-157.996" font-family="Times,serif" font-size="9.00">&#45;5</text>
</g>
<!-- &#45;5&#45;&gt;0 -->
<g id="edge1" class="edge"><title>&#45;5&#45;&gt;0</title>
<path fill="none" stroke="red" stroke-width="0.156122" d="M604.553,-150.922C600.872,-132.488 589.357,-87.9238 561,-65.6985 528.028,-39.8557 402.786,-24.0409 348.898,-18.3009"/>
<polygon fill="red" stroke="red" stroke-width="0.156122" points="349.138,-14.807 338.83,-17.258 348.417,-21.7698 349.138,-14.807"/>
</g>
<!-- &#45;5&#45;&gt;2 -->
<g id="edge26" class="edge"><title>&#45;5&#45;&gt;2</title>
<path fill="none" stroke="green" stroke-width="0.699674" d="M618.088,-154.551C632.75,-148.179 656.769,-135.19 667,-115.196 677.021,-95.612 679.681,-83.6747 667,-65.6985 640.944,-28.7629 584.983,-19.035 552.252,-16.5737"/>
<polygon fill="green" stroke="green" stroke-width="0.699674" points="552.304,-13.071 542.119,-15.9888 551.9,-20.0594 552.304,-13.071"/>
</g>
<!-- &#45;5&#45;&gt;4274 -->
<g id="edge18" class="edge"><title>&#45;5&#45;&gt;4274</title>
<path fill="none" stroke="green" stroke-width="0.274673" d="M609.203,-151.158C612.005,-144.127 616.264,-133.44 620.409,-123.041"/>
<polygon fill="green" stroke="green" stroke-width="0.274673" points="623.687,-124.27 624.138,-113.685 617.184,-121.679 623.687,-124.27"/>
</g>
<!-- 4277 -->
<g id="node13" class="node"><title>4277</title>
<ellipse fill="white" stroke="black" cx="527" cy="-90.4472" rx="25" ry="25"/>
<text text-anchor="middle" x="527" y="-88.2472" font-family="Times,serif" font-size="9.00">4277</text>
</g>
<!-- &#45;5&#45;&gt;4277 -->
<g id="edge19" class="edge"><title>&#45;5&#45;&gt;4277</title>
<path fill="none" stroke="green" stroke-width="0.341324" d="M596.627,-151.158C586.006,-142.049 568.229,-126.804 553.297,-113.999"/>
<polygon fill="green" stroke="green" stroke-width="0.341324" points="555.226,-111.043 545.357,-107.19 550.669,-116.356 555.226,-111.043"/>
</g>
<!-- 4273&#45;&gt;1 -->
<g id="edge21" class="edge"><title>4273&#45;&gt;1</title>
<path fill="none" stroke="red" stroke-width="0.426857" d="M196.797,-69.7243C189.227,-59.2125 179.937,-46.3122 172.346,-35.7706"/>
<polygon fill="red" stroke="red" stroke-width="0.426857" points="175.128,-33.6442 166.444,-27.5746 169.447,-37.7348 175.128,-33.6442"/>
</g>
<!-- 4273&#45;&gt;2 -->
<g id="edge10" class="edge"><title>4273&#45;&gt;2</title>
<path fill="none" stroke="red" stroke-width="0.223857" d="M229.67,-73.8266C234.141,-70.7229 239.057,-67.783 244,-65.6985 333.72,-27.863 451.134,-18.744 501.861,-16.5466"/>
<polygon fill="red" stroke="red" stroke-width="0.223857" points="502.052,-20.042 511.913,-16.1661 501.787,-13.047 502.052,-20.042"/>
</g>
<!-- 4274&#45;&gt;0 -->
<g id="edge13" class="edge"><title>4274&#45;&gt;0</title>
<path fill="none" stroke="green" stroke-width="0.320085" d="M613.077,-75.4032C607.162,-71.771 600.517,-68.1871 594,-65.6985 507.863,-32.8062 397.745,-21.1603 349.065,-17.4324"/>
<polygon fill="green" stroke="green" stroke-width="0.320085" points="349.072,-13.9241 338.847,-16.6991 348.571,-20.9061 349.072,-13.9241"/>
</g>
<!-- 4274&#45;&gt;2 -->
<g id="edge17" class="edge"><title>4274&#45;&gt;2</title>
<path fill="none" stroke="red" stroke-width="0.428504" d="M613.062,-75.604C594.217,-62.5194 566.086,-42.9877 547.166,-29.8512"/>
<polygon fill="red" stroke="red" stroke-width="0.428504" points="549.154,-26.9705 538.944,-24.1421 545.162,-32.7204 549.154,-26.9705"/>
</g>
<!-- 4276&#45;&gt;0 -->
<g id="edge12" class="edge"><title>4276&#45;&gt;0</title>
<path fill="none" stroke="red" stroke-width="0.372215" d="M125.072,-75.7688C130.989,-72.1424 137.598,-68.4701 144,-65.6985 197.396,-42.5819 264.372,-27.3805 299.658,-20.3555"/>
<polygon fill="red" stroke="red" stroke-width="0.372215" points="300.391,-23.7787 309.541,-18.4381 299.058,-16.9068 300.391,-23.7787"/>
</g>
<!-- 4276&#45;&gt;1 -->
<g id="edge20" class="edge"><title>4276&#45;&gt;1</title>
<path fill="none" stroke="red" stroke-width="0.465559" d="M119.203,-69.7243C126.773,-59.2125 136.063,-46.3122 143.654,-35.7706"/>
<polygon fill="red" stroke="red" stroke-width="0.465559" points="146.553,-37.7348 149.556,-27.5746 140.872,-33.6442 146.553,-37.7348"/>
</g>
<!-- 4277&#45;&gt;1 -->
<g id="edge6" class="edge"><title>4277&#45;&gt;1</title>
<path fill="none" stroke="red" stroke-width="0.20806" d="M508.371,-73.7271C503.898,-70.6285 498.971,-67.7159 494,-65.6985 437.192,-42.6427 251.011,-24.1545 183.088,-18.0237"/>
<polygon fill="red" stroke="red" stroke-width="0.20806" points="183.157,-14.5161 172.886,-17.116 182.537,-21.4886 183.157,-14.5161"/>
</g>
<!-- 4277&#45;&gt;2 -->
<g id="edge14" class="edge"><title>4277&#45;&gt;2</title>
<path fill="none" stroke="green" stroke-width="0.251711" d="M527,-65.3485C527,-57.1867 527,-48.0749 527,-39.9156"/>
<polygon fill="green" stroke="green" stroke-width="0.251711" points="530.5,-39.8982 527,-29.8983 523.5,-39.8983 530.5,-39.8982"/>
</g>
<!-- 4278&#45;&gt;0 -->
<g id="edge22" class="edge"><title>4278&#45;&gt;0</title>
<path fill="none" stroke="green" stroke-width="0.799122" d="M290.814,-68.9461C297.164,-58.7859 304.812,-46.5486 311.165,-36.3839"/>
<polygon fill="green" stroke="green" stroke-width="0.799122" points="314.229,-38.0857 316.561,-27.7507 308.293,-34.3756 314.229,-38.0857"/>
</g>
</g>
</svg>
