<?xml version="1.0" encoding="UTF-8" standalone="no"?>
<!DOCTYPE svg PUBLIC "-//W3C//DTD SVG 1.1//EN"
 "http://www.w3.org/Graphics/SVG/1.1/DTD/svg11.dtd">
<!-- Generated by graphviz version 2.38.0 (20140413.2041)
 -->
<!-- Title: %3 Pages: 1 -->
<svg width="715pt" height="341pt"
 viewBox="0.00 0.00 714.53 341.12" xmlns="http://www.w3.org/2000/svg" xmlns:xlink="http://www.w3.org/1999/xlink">
<g id="graph0" class="graph" transform="scale(1 1) rotate(0) translate(4 337.12)">
<title>%3</title>
<polygon fill="white" stroke="none" points="-4,4 -4,-337.12 710.529,-337.12 710.529,4 -4,4"/>
<!-- &#45;1 -->
<g id="node1" class="node"><title>&#45;1</title>
<polygon fill="lightgray" stroke="black" points="127.749,-333.12 103.749,-333.12 103.749,-315.12 127.749,-315.12 127.749,-333.12"/>
<text text-anchor="middle" x="115.749" y="-321.92" font-family="Times,serif" font-size="9.00">&#45;1</text>
</g>
<!-- 0 -->
<g id="node5" class="node"><title>0</title>
<ellipse fill="lightblue" stroke="black" cx="153.749" cy="-93.2756" rx="14.7" ry="14.7"/>
<text text-anchor="middle" x="153.749" y="-91.0756" font-family="Times,serif" font-size="9.00">0</text>
</g>
<!-- &#45;1&#45;&gt;0 -->
<g id="edge2" class="edge"><title>&#45;1&#45;&gt;0</title>
<path fill="none" stroke="red" stroke-width="0.567455" d="M116.441,-314.844C118.671,-289.255 126.313,-209.222 139.749,-144.125 141.563,-135.335 144.092,-125.819 146.501,-117.48"/>
<polygon fill="red" stroke="red" stroke-width="0.567455" points="149.917,-118.274 149.428,-107.69 143.21,-116.269 149.917,-118.274"/>
</g>
<!-- 2 -->
<g id="node7" class="node"><title>2</title>
<ellipse fill="lightblue" stroke="black" cx="324.749" cy="-93.2756" rx="14.7" ry="14.7"/>
<text text-anchor="middle" x="324.749" y="-91.0756" font-family="Times,serif" font-size="9.00">2</text>
</g>
<!-- &#45;1&#45;&gt;2 -->
<g id="edge1" class="edge"><title>&#45;1&#45;&gt;2</title>
<path fill="none" stroke="red" stroke-width="0.175765" d="M125.643,-314.897C149.052,-295.212 209.139,-243.311 252.749,-193.622 264.95,-179.72 293.733,-138.958 310.985,-114.178"/>
<polygon fill="red" stroke="red" stroke-width="0.175765" points="313.938,-116.061 316.766,-105.851 308.188,-112.069 313.938,-116.061"/>
</g>
<!-- 3016 -->
<g id="node9" class="node"><title>3016</title>
<ellipse fill="white" stroke="black" cx="62.7487" cy="-168.874" rx="25" ry="25"/>
<text text-anchor="middle" x="62.7487" y="-166.674" font-family="Times,serif" font-size="9.00">3016</text>
</g>
<!-- &#45;1&#45;&gt;3016 -->
<g id="edge22" class="edge"><title>&#45;1&#45;&gt;3016</title>
<path fill="none" stroke="green" stroke-width="0.146012" stroke-dasharray="1,5" d="M112.899,-314.881C105.667,-293.968 86.2912,-237.945 73.8499,-201.972"/>
<polygon fill="green" stroke="green" stroke-width="0.146012" points="77.117,-200.71 70.5406,-192.403 70.5014,-202.998 77.117,-200.71"/>
</g>
<!-- 3566 -->
<g id="node10" class="node"><title>3566</title>
<ellipse fill="white" stroke="black" cx="24.7487" cy="-254.371" rx="25" ry="25"/>
<text text-anchor="middle" x="24.7487" y="-252.171" font-family="Times,serif" font-size="9.00">3566</text>
</g>
<!-- &#45;1&#45;&gt;3566 -->
<g id="edge21" class="edge"><title>&#45;1&#45;&gt;3566</title>
<path fill="none" stroke="green" stroke-width="0.366349" d="M104.952,-315.082C92.0864,-305.503 70.1056,-289.139 52.4054,-275.961"/>
<polygon fill="green" stroke="green" stroke-width="0.366349" points="54.2301,-272.956 44.1188,-269.792 50.0499,-278.571 54.2301,-272.956"/>
</g>
<!-- 754 -->
<g id="node12" class="node"><title>754</title>
<ellipse fill="white" stroke="black" cx="320.749" cy="-254.371" rx="21.4286" ry="21.4286"/>
<text text-anchor="middle" x="320.749" y="-252.171" font-family="Times,serif" font-size="9.00">754</text>
</g>
<!-- &#45;1&#45;&gt;754 -->
<g id="edge12" class="edge"><title>&#45;1&#45;&gt;754</title>
<path fill="none" stroke="green" stroke-width="0.212085" stroke-dasharray="1,5" d="M127.76,-321.46C156.231,-317.221 229.638,-304.496 285.749,-279.12 289.161,-277.577 292.603,-275.706 295.927,-273.699"/>
<polygon fill="green" stroke="green" stroke-width="0.212085" points="297.889,-276.598 304.35,-268.201 294.063,-270.736 297.889,-276.598"/>
</g>
<!-- &#45;2 -->
<g id="node2" class="node"><title>&#45;2</title>
<polygon fill="lightgray" stroke="black" points="604.749,-333.12 580.749,-333.12 580.749,-315.12 604.749,-315.12 604.749,-333.12"/>
<text text-anchor="middle" x="592.749" y="-321.92" font-family="Times,serif" font-size="9.00">&#45;2</text>
</g>
<!-- 1 -->
<g id="node6" class="node"><title>1</title>
<ellipse fill="lightblue" stroke="black" cx="455.749" cy="-168.874" rx="14.7" ry="14.7"/>
<text text-anchor="middle" x="455.749" y="-166.674" font-family="Times,serif" font-size="9.00">1</text>
</g>
<!-- &#45;2&#45;&gt;1 -->
<g id="edge16" class="edge"><title>&#45;2&#45;&gt;1</title>
<path fill="none" stroke="red" stroke-width="0.966164" d="M586.733,-315.113C574.245,-298.632 544.369,-259.923 516.749,-229.622 502.986,-214.524 486.364,-198.366 473.948,-186.665"/>
<polygon fill="red" stroke="red" stroke-width="0.966164" points="476.166,-183.947 466.47,-179.676 471.386,-189.061 476.166,-183.947"/>
</g>
<!-- &#45;2&#45;&gt;754 -->
<g id="edge17" class="edge"><title>&#45;2&#45;&gt;754</title>
<path fill="none" stroke="green" stroke-width="0.195152" d="M580.555,-322.961C544.01,-322.064 432.846,-316.249 350.749,-279.12 348.419,-278.066 346.111,-276.792 343.871,-275.388"/>
<polygon fill="green" stroke="green" stroke-width="0.195152" points="345.839,-272.492 335.67,-269.518 341.765,-278.184 345.839,-272.492"/>
</g>
<!-- 755 -->
<g id="node13" class="node"><title>755</title>
<ellipse fill="white" stroke="black" cx="380.749" cy="-254.371" rx="21.4286" ry="21.4286"/>
<text text-anchor="middle" x="380.749" y="-252.171" font-family="Times,serif" font-size="9.00">755</text>
</g>
<!-- &#45;2&#45;&gt;755 -->
<g id="edge10" class="edge"><title>&#45;2&#45;&gt;755</title>
<path fill="none" stroke="green" stroke-width="0.416476" d="M580.369,-319.516C555.388,-312.205 497.195,-294.974 448.749,-279.12 436.029,-274.957 422.058,-270.124 410.107,-265.908"/>
<polygon fill="green" stroke="green" stroke-width="0.416476" points="411.209,-262.586 400.614,-262.541 408.869,-269.183 411.209,-262.586"/>
</g>
<!-- 756 -->
<g id="node14" class="node"><title>756</title>
<ellipse fill="white" stroke="black" cx="467.749" cy="-21.2132" rx="21.4286" ry="21.4286"/>
<text text-anchor="middle" x="467.749" y="-19.0132" font-family="Times,serif" font-size="9.00">756</text>
</g>
<!-- &#45;2&#45;&gt;756 -->
<g id="edge5" class="edge"><title>&#45;2&#45;&gt;756</title>
<path fill="none" stroke="red" stroke-width="0.377724" stroke-dasharray="1,5" d="M589.405,-315.071C573.71,-277.289 506.96,-116.606 479.56,-50.646"/>
<polygon fill="red" stroke="red" stroke-width="0.377724" points="482.732,-49.1585 475.664,-41.2663 476.268,-51.8439 482.732,-49.1585"/>
</g>
<!-- 758 -->
<g id="node15" class="node"><title>758</title>
<ellipse fill="white" stroke="black" cx="664.749" cy="-168.874" rx="21.4286" ry="21.4286"/>
<text text-anchor="middle" x="664.749" y="-166.674" font-family="Times,serif" font-size="9.00">758</text>
</g>
<!-- &#45;2&#45;&gt;758 -->
<g id="edge8" class="edge"><title>&#45;2&#45;&gt;758</title>
<path fill="none" stroke="red" stroke-width="0.826468" stroke-dasharray="1,5" d="M604.968,-322.248C627.991,-319.87 677.396,-311.103 698.749,-279.12 716.157,-253.045 699.175,-217.595 683.592,-194.242"/>
<polygon fill="red" stroke="red" stroke-width="0.826468" points="686.369,-192.107 677.762,-185.929 680.638,-196.126 686.369,-192.107"/>
</g>
<!-- 3326 -->
<g id="node16" class="node"><title>3326</title>
<ellipse fill="white" stroke="black" cx="664.749" cy="-254.371" rx="25" ry="25"/>
<text text-anchor="middle" x="664.749" y="-252.171" font-family="Times,serif" font-size="9.00">3326</text>
</g>
<!-- &#45;2&#45;&gt;3326 -->
<g id="edge26" class="edge"><title>&#45;2&#45;&gt;3326</title>
<path fill="none" stroke="green" stroke-width="0.355777" d="M601.291,-315.082C610.695,-306.233 626.253,-291.594 639.61,-279.025"/>
<polygon fill="green" stroke="green" stroke-width="0.355777" points="642.273,-281.326 647.157,-271.924 637.476,-276.228 642.273,-281.326"/>
</g>
<!-- &#45;3 -->
<g id="node3" class="node"><title>&#45;3</title>
<polygon fill="lightgray" stroke="black" points="392.749,-333.12 368.749,-333.12 368.749,-315.12 392.749,-315.12 392.749,-333.12"/>
<text text-anchor="middle" x="380.749" y="-321.92" font-family="Times,serif" font-size="9.00">&#45;3</text>
</g>
<!-- &#45;3&#45;&gt;0 -->
<g id="edge23" class="edge"><title>&#45;3&#45;&gt;0</title>
<path fill="none" stroke="green" stroke-width="0.775263" d="M368.729,-319.886C331.56,-309.187 218.084,-271.119 169.749,-193.622 155.577,-170.901 152.64,-139.772 152.565,-118.45"/>
<polygon fill="green" stroke="green" stroke-width="0.775263" points="156.067,-118.349 152.742,-108.29 149.068,-118.227 156.067,-118.349"/>
</g>
<!-- &#45;3&#45;&gt;1 -->
<g id="edge25" class="edge"><title>&#45;3&#45;&gt;1</title>
<path fill="none" stroke="green" stroke-width="0.184276" d="M387.037,-315.012C393.514,-306.421 403.639,-292.303 410.749,-279.12 426.214,-250.442 439.813,-215.292 447.907,-192.744"/>
<polygon fill="green" stroke="green" stroke-width="0.184276" points="451.299,-193.649 451.324,-183.054 444.697,-191.321 451.299,-193.649"/>
</g>
<!-- &#45;3&#45;&gt;754 -->
<g id="edge18" class="edge"><title>&#45;3&#45;&gt;754</title>
<path fill="none" stroke="green" stroke-width="0.448585" d="M373.63,-315.082C365.661,-306.084 352.389,-291.098 341.135,-278.39"/>
<polygon fill="green" stroke="green" stroke-width="0.448585" points="343.704,-276.012 334.454,-270.846 338.464,-280.653 343.704,-276.012"/>
</g>
<!-- &#45;3&#45;&gt;755 -->
<g id="edge3" class="edge"><title>&#45;3&#45;&gt;755</title>
<path fill="none" stroke="red" stroke-width="0.776069" d="M380.749,-315.082C380.749,-307.804 380.749,-296.609 380.749,-285.87"/>
<polygon fill="red" stroke="red" stroke-width="0.776069" points="384.249,-285.857 380.749,-275.857 377.249,-285.857 384.249,-285.857"/>
</g>
<!-- &#45;3&#45;&gt;758 -->
<g id="edge24" class="edge"><title>&#45;3&#45;&gt;758</title>
<path fill="none" stroke="green" stroke-width="0.352112" d="M392.902,-320.581C417.325,-315.184 473.701,-301.225 516.749,-279.12 564.843,-254.423 614.049,-214.617 641.866,-190.484"/>
<polygon fill="green" stroke="green" stroke-width="0.352112" points="644.247,-193.051 649.456,-183.825 639.63,-187.788 644.247,-193.051"/>
</g>
<!-- &#45;4 -->
<g id="node4" class="node"><title>&#45;4</title>
<polygon fill="lightgray" stroke="black" points="243.749,-177.874 219.749,-177.874 219.749,-159.874 243.749,-159.874 243.749,-177.874"/>
<text text-anchor="middle" x="231.749" y="-166.674" font-family="Times,serif" font-size="9.00">&#45;4</text>
</g>
<!-- &#45;4&#45;&gt;0 -->
<g id="edge11" class="edge"><title>&#45;4&#45;&gt;0</title>
<path fill="none" stroke="red" stroke-width="0.183489" d="M223.103,-159.716C210.696,-148.009 187.561,-126.18 171.438,-110.967"/>
<polygon fill="red" stroke="red" stroke-width="0.183489" points="173.84,-108.421 164.165,-104.104 169.036,-113.512 173.84,-108.421"/>
</g>
<!-- &#45;4&#45;&gt;2 -->
<g id="edge9" class="edge"><title>&#45;4&#45;&gt;2</title>
<path fill="none" stroke="red" stroke-width="0.141446" stroke-dasharray="1,5" d="M240.222,-159.735C245.213,-155.043 251.713,-149.105 257.749,-144.125 272.976,-131.559 290.961,-118.257 304.461,-108.557"/>
<polygon fill="red" stroke="red" stroke-width="0.141446" points="306.5,-111.402 312.611,-102.747 302.437,-105.702 306.5,-111.402"/>
</g>
<!-- 2&#45;&gt;756 -->
<g id="edge28" class="edge"><title>2&#45;&gt;756</title>
<path fill="none" stroke="green" stroke-width="0.304467" d="M337.946,-85.8099C360.905,-74.5609 408.682,-51.1526 439.428,-36.0886"/>
<polygon fill="green" stroke="green" stroke-width="0.304467" points="441.319,-39.0598 448.759,-31.517 438.239,-32.7737 441.319,-39.0598"/>
</g>
<!-- 1892 -->
<g id="node8" class="node"><title>1892</title>
<ellipse fill="white" stroke="black" cx="482.749" cy="-254.371" rx="25" ry="25"/>
<text text-anchor="middle" x="482.749" y="-252.171" font-family="Times,serif" font-size="9.00">1892</text>
</g>
<!-- 1892&#45;&gt;1 -->
<g id="edge13" class="edge"><title>1892&#45;&gt;1</title>
<path fill="none" stroke="green" stroke-width="0.529881" stroke-dasharray="1,5" d="M475.371,-230.555C471.603,-218.903 467.028,-204.755 463.244,-193.052"/>
<polygon fill="green" stroke="green" stroke-width="0.529881" points="466.569,-191.959 460.162,-183.521 459.909,-194.113 466.569,-191.959"/>
</g>
<!-- 3016&#45;&gt;0 -->
<g id="edge6" class="edge"><title>3016&#45;&gt;0</title>
<path fill="none" stroke="green" stroke-width="1.10625" d="M81.604,-152.624C97.1535,-140.048 119.113,-122.288 134.712,-109.672"/>
<polygon fill="green" stroke="green" stroke-width="1.10625" points="137.069,-112.267 142.643,-103.258 132.667,-106.825 137.069,-112.267"/>
</g>
<!-- 3566&#45;&gt;3016 -->
<g id="edge14" class="edge"><title>3566&#45;&gt;3016</title>
<path fill="none" stroke="green" stroke-width="0.103985" d="M34.7328,-231.433C38.9655,-222.133 43.9753,-211.125 48.5797,-201.007"/>
<polygon fill="green" stroke="green" stroke-width="0.103985" points="51.8747,-202.217 52.8314,-191.665 45.5035,-199.317 51.8747,-202.217"/>
</g>
<!-- 2832 -->
<g id="node11" class="node"><title>2832</title>
<ellipse fill="white" stroke="black" cx="324.749" cy="-168.874" rx="25" ry="25"/>
<text text-anchor="middle" x="324.749" y="-166.674" font-family="Times,serif" font-size="9.00">2832</text>
</g>
<!-- 2832&#45;&gt;2 -->
<g id="edge7" class="edge"><title>2832&#45;&gt;2</title>
<path fill="none" stroke="green" stroke-width="0.203696" d="M324.749,-143.775C324.749,-135.613 324.749,-126.501 324.749,-118.342"/>
<polygon fill="green" stroke="green" stroke-width="0.203696" points="328.249,-118.325 324.749,-108.325 321.249,-118.325 328.249,-118.325"/>
</g>
<!-- 754&#45;&gt;2 -->
<g id="edge20" class="edge"><title>754&#45;&gt;2</title>
<path fill="none" stroke="red" stroke-width="0.46303" d="M334.122,-237.864C343.025,-226.467 353.939,-210.147 358.749,-193.622 364.897,-172.5 365.235,-165.146 358.749,-144.125 355.191,-132.595 347.951,-121.348 341.063,-112.464"/>
<polygon fill="red" stroke="red" stroke-width="0.46303" points="343.759,-110.232 334.699,-104.739 338.356,-114.683 343.759,-110.232"/>
</g>
<!-- 754&#45;&gt;2832 -->
<g id="edge4" class="edge"><title>754&#45;&gt;2832</title>
<path fill="none" stroke="green" stroke-width="0.304711" d="M321.717,-233.159C322.139,-224.347 322.646,-213.772 323.123,-203.812"/>
<polygon fill="green" stroke="green" stroke-width="0.304711" points="326.622,-203.911 323.605,-193.755 319.63,-203.576 326.622,-203.911"/>
</g>
<!-- 755&#45;&gt;0 -->
<g id="edge27" class="edge"><title>755&#45;&gt;0</title>
<path fill="none" stroke="red" stroke-width="0.801448" d="M365.401,-239.222C360.931,-235.675 355.866,-232.162 350.749,-229.622 293.199,-201.063 261.863,-232.544 210.749,-193.622 185.368,-174.296 169.413,-140.176 161.038,-117.395"/>
<polygon fill="red" stroke="red" stroke-width="0.801448" points="164.3,-116.12 157.716,-107.819 157.687,-118.414 164.3,-116.12"/>
</g>
<!-- 755&#45;&gt;1 -->
<g id="edge15" class="edge"><title>755&#45;&gt;1</title>
<path fill="none" stroke="green" stroke-width="0.200158" d="M394.505,-238.056C407.065,-224.074 425.661,-203.37 439.065,-188.448"/>
<polygon fill="green" stroke="green" stroke-width="0.200158" points="441.827,-190.611 445.905,-180.832 436.619,-185.933 441.827,-190.611"/>
</g>
<!-- 3326&#45;&gt;758 -->
<g id="edge19" class="edge"><title>3326&#45;&gt;758</title>
<path fill="none" stroke="red" stroke-width="0.851927" d="M664.749,-229.22C664.749,-220.262 664.749,-209.98 664.749,-200.519"/>
<polygon fill="red" stroke="red" stroke-width="0.851927" points="668.249,-200.299 664.749,-190.299 661.249,-200.299 668.249,-200.299"/>
</g>
</g>
</svg>
