<?xml version="1.0" encoding="UTF-8" standalone="no"?>
<!DOCTYPE svg PUBLIC "-//W3C//DTD SVG 1.1//EN"
 "http://www.w3.org/Graphics/SVG/1.1/DTD/svg11.dtd">
<!-- Generated by graphviz version 2.38.0 (20140413.2041)
 -->
<!-- Title: %3 Pages: 1 -->
<svg width="637pt" height="256pt"
 viewBox="0.00 0.00 636.77 255.62" xmlns="http://www.w3.org/2000/svg" xmlns:xlink="http://www.w3.org/1999/xlink">
<g id="graph0" class="graph" transform="scale(1 1) rotate(0) translate(4 251.622)">
<title>%3</title>
<polygon fill="white" stroke="none" points="-4,4 -4,-251.622 632.771,-251.622 632.771,4 -4,4"/>
<!-- &#45;1 -->
<g id="node1" class="node"><title>&#45;1</title>
<polygon fill="lightgray" stroke="black" points="186.558,-247.622 162.558,-247.622 162.558,-229.622 186.558,-229.622 186.558,-247.622"/>
<text text-anchor="middle" x="174.558" y="-236.422" font-family="Times,serif" font-size="9.00">&#45;1</text>
</g>
<!-- 726 -->
<g id="node12" class="node"><title>726</title>
<ellipse fill="white" stroke="black" cx="267.558" cy="-90.4472" rx="21.4286" ry="21.4286"/>
<text text-anchor="middle" x="267.558" y="-88.2472" font-family="Times,serif" font-size="9.00">726</text>
</g>
<!-- &#45;1&#45;&gt;726 -->
<g id="edge23" class="edge"><title>&#45;1&#45;&gt;726</title>
<path fill="none" stroke="red" stroke-width="0.316961" stroke-dasharray="1,5" d="M186.809,-232.557C201.545,-225.834 225.988,-212.566 239.558,-193.622 254.745,-172.42 261.699,-143.359 264.88,-121.649"/>
<polygon fill="red" stroke="red" stroke-width="0.316961" points="268.362,-122.011 266.158,-111.648 261.419,-121.124 268.362,-122.011"/>
</g>
<!-- 727 -->
<g id="node13" class="node"><title>727</title>
<ellipse fill="white" stroke="black" cx="84.5578" cy="-172.409" rx="21.4286" ry="21.4286"/>
<text text-anchor="middle" x="84.5578" y="-170.209" font-family="Times,serif" font-size="9.00">727</text>
</g>
<!-- &#45;1&#45;&gt;727 -->
<g id="edge6" class="edge"><title>&#45;1&#45;&gt;727</title>
<path fill="none" stroke="green" stroke-width="0.200422" stroke-dasharray="1,5" d="M163.159,-229.49C149.745,-219.919 127.076,-203.745 109.52,-191.219"/>
<polygon fill="green" stroke="green" stroke-width="0.200422" points="111.549,-188.367 101.376,-185.408 107.483,-194.066 111.549,-188.367"/>
</g>
<!-- &#45;2 -->
<g id="node2" class="node"><title>&#45;2</title>
<polygon fill="lightgray" stroke="black" points="230.558,-181.409 206.558,-181.409 206.558,-163.409 230.558,-163.409 230.558,-181.409"/>
<text text-anchor="middle" x="218.558" y="-170.209" font-family="Times,serif" font-size="9.00">&#45;2</text>
</g>
<!-- 0 -->
<g id="node6" class="node"><title>0</title>
<ellipse fill="lightblue" stroke="black" cx="218.558" cy="-14.8492" rx="14.7" ry="14.7"/>
<text text-anchor="middle" x="218.558" y="-12.6492" font-family="Times,serif" font-size="9.00">0</text>
</g>
<!-- &#45;2&#45;&gt;0 -->
<g id="edge2" class="edge"><title>&#45;2&#45;&gt;0</title>
<path fill="none" stroke="red" stroke-width="0.671635" stroke-dasharray="1,5" d="M218.558,-163.046C218.558,-140.154 218.558,-75.8142 218.558,-40.2473"/>
<polygon fill="red" stroke="red" stroke-width="0.671635" points="222.058,-39.7996 218.558,-29.7996 215.058,-39.7997 222.058,-39.7996"/>
</g>
<!-- 723 -->
<g id="node9" class="node"><title>723</title>
<ellipse fill="white" stroke="black" cx="327.558" cy="-90.4472" rx="21.4286" ry="21.4286"/>
<text text-anchor="middle" x="327.558" y="-88.2472" font-family="Times,serif" font-size="9.00">723</text>
</g>
<!-- &#45;2&#45;&gt;723 -->
<g id="edge11" class="edge"><title>&#45;2&#45;&gt;723</title>
<path fill="none" stroke="green" stroke-width="0.123733" d="M230.205,-163.4C245.734,-152.657 274.001,-132.883 297.558,-115.196 299.414,-113.802 301.322,-112.347 303.233,-110.872"/>
<polygon fill="green" stroke="green" stroke-width="0.123733" points="305.764,-113.337 311.484,-104.418 301.451,-107.823 305.764,-113.337"/>
</g>
<!-- 724 -->
<g id="node10" class="node"><title>724</title>
<ellipse fill="white" stroke="black" cx="169.558" cy="-90.4472" rx="21.4286" ry="21.4286"/>
<text text-anchor="middle" x="169.558" y="-88.2472" font-family="Times,serif" font-size="9.00">724</text>
</g>
<!-- &#45;2&#45;&gt;724 -->
<g id="edge26" class="edge"><title>&#45;2&#45;&gt;724</title>
<path fill="none" stroke="red" stroke-width="0.500607" d="M213.499,-163.153C206.998,-152.546 195.403,-133.624 185.756,-117.88"/>
<polygon fill="red" stroke="red" stroke-width="0.500607" points="188.563,-115.763 180.354,-109.065 182.594,-119.42 188.563,-115.763"/>
</g>
<!-- 725 -->
<g id="node11" class="node"><title>725</title>
<ellipse fill="white" stroke="black" cx="109.558" cy="-90.4472" rx="21.4286" ry="21.4286"/>
<text text-anchor="middle" x="109.558" y="-88.2472" font-family="Times,serif" font-size="9.00">725</text>
</g>
<!-- &#45;2&#45;&gt;725 -->
<g id="edge3" class="edge"><title>&#45;2&#45;&gt;725</title>
<path fill="none" stroke="green" stroke-width="0.518334" d="M206.911,-163.4C191.382,-152.657 163.115,-132.883 139.558,-115.196 137.702,-113.802 135.794,-112.347 133.882,-110.872"/>
<polygon fill="green" stroke="green" stroke-width="0.518334" points="135.665,-107.823 125.632,-104.418 131.352,-113.337 135.665,-107.823"/>
</g>
<!-- &#45;2&#45;&gt;726 -->
<g id="edge22" class="edge"><title>&#45;2&#45;&gt;726</title>
<path fill="none" stroke="green" stroke-width="0.353533" d="M223.617,-163.153C230.117,-152.546 241.712,-133.624 251.36,-117.88"/>
<polygon fill="green" stroke="green" stroke-width="0.353533" points="254.521,-119.42 256.762,-109.065 248.553,-115.763 254.521,-119.42"/>
</g>
<!-- &#45;3 -->
<g id="node3" class="node"><title>&#45;3</title>
<polygon fill="lightgray" stroke="black" points="147.558,-181.409 123.558,-181.409 123.558,-163.409 147.558,-163.409 147.558,-181.409"/>
<text text-anchor="middle" x="135.558" y="-170.209" font-family="Times,serif" font-size="9.00">&#45;3</text>
</g>
<!-- 2 -->
<g id="node8" class="node"><title>2</title>
<ellipse fill="lightblue" stroke="black" cx="139.558" cy="-14.8492" rx="14.7" ry="14.7"/>
<text text-anchor="middle" x="139.558" y="-12.6492" font-family="Times,serif" font-size="9.00">2</text>
</g>
<!-- &#45;3&#45;&gt;2 -->
<g id="edge19" class="edge"><title>&#45;3&#45;&gt;2</title>
<path fill="none" stroke="green" stroke-width="0.581112" d="M127.044,-163.199C111.689,-148.344 80.8201,-118.252 79.5578,-115.196 71.1585,-94.8637 70.2121,-85.6135 79.5578,-65.6985 87.4111,-48.9638 103.948,-35.9026 117.675,-27.3553"/>
<polygon fill="green" stroke="green" stroke-width="0.581112" points="119.705,-30.2235 126.589,-22.1694 116.185,-24.173 119.705,-30.2235"/>
</g>
<!-- &#45;3&#45;&gt;724 -->
<g id="edge5" class="edge"><title>&#45;3&#45;&gt;724</title>
<path fill="none" stroke="green" stroke-width="0.264969" d="M139.068,-163.153C143.383,-153.006 150.933,-135.25 157.44,-119.946"/>
<polygon fill="green" stroke="green" stroke-width="0.264969" points="160.829,-120.92 161.521,-110.348 154.387,-118.181 160.829,-120.92"/>
</g>
<!-- &#45;3&#45;&gt;725 -->
<g id="edge32" class="edge"><title>&#45;3&#45;&gt;725</title>
<path fill="none" stroke="red" stroke-width="0.181329" d="M132.873,-163.153C129.616,-153.137 123.949,-135.707 119.017,-120.54"/>
<polygon fill="red" stroke="red" stroke-width="0.181329" points="122.336,-119.428 115.916,-111 115.679,-121.592 122.336,-119.428"/>
</g>
<!-- &#45;4 -->
<g id="node4" class="node"><title>&#45;4</title>
<polygon fill="lightgray" stroke="black" points="384.558,-181.409 360.558,-181.409 360.558,-163.409 384.558,-163.409 384.558,-181.409"/>
<text text-anchor="middle" x="372.558" y="-170.209" font-family="Times,serif" font-size="9.00">&#45;4</text>
</g>
<!-- &#45;4&#45;&gt;0 -->
<g id="edge10" class="edge"><title>&#45;4&#45;&gt;0</title>
<path fill="none" stroke="green" stroke-width="0.63186" d="M377.638,-163.296C388.88,-144.2 413.147,-95.7639 390.558,-65.6985 372.782,-42.0396 286.332,-26.0019 243.172,-19.3336"/>
<polygon fill="green" stroke="green" stroke-width="0.63186" points="243.608,-15.86 233.2,-17.8412 242.572,-22.7829 243.608,-15.86"/>
</g>
<!-- 1 -->
<g id="node7" class="node"><title>1</title>
<ellipse fill="lightblue" stroke="black" cx="493.558" cy="-14.8492" rx="14.7" ry="14.7"/>
<text text-anchor="middle" x="493.558" y="-12.6492" font-family="Times,serif" font-size="9.00">1</text>
</g>
<!-- &#45;4&#45;&gt;1 -->
<g id="edge28" class="edge"><title>&#45;4&#45;&gt;1</title>
<path fill="none" stroke="red" stroke-width="0.287959" stroke-dasharray="1,5" d="M384.934,-170.338C411.745,-167.273 474.919,-155.863 501.558,-115.196 516.551,-92.3082 509.97,-59.7918 502.746,-38.2737"/>
<polygon fill="red" stroke="red" stroke-width="0.287959" points="505.961,-36.8743 499.24,-28.6841 499.387,-39.278 505.961,-36.8743"/>
</g>
<!-- &#45;4&#45;&gt;2 -->
<g id="edge9" class="edge"><title>&#45;4&#45;&gt;2</title>
<path fill="none" stroke="red" stroke-width="0.111849" stroke-dasharray="1,5" d="M374.183,-163.242C377.578,-143.599 383.13,-93.303 357.558,-65.6985 307.14,-11.2725 266.76,-46.7583 194.558,-29.6985 184.532,-27.3296 173.514,-24.5837 163.99,-22.1648"/>
<polygon fill="red" stroke="red" stroke-width="0.111849" points="164.56,-18.6979 154.005,-19.61 162.825,-25.4794 164.56,-18.6979"/>
</g>
<!-- &#45;4&#45;&gt;723 -->
<g id="edge31" class="edge"><title>&#45;4&#45;&gt;723</title>
<path fill="none" stroke="green" stroke-width="0.161886" d="M367.912,-163.153C361.98,-152.612 351.427,-133.861 342.601,-118.178"/>
<polygon fill="green" stroke="green" stroke-width="0.161886" points="345.606,-116.381 337.651,-109.383 339.506,-119.814 345.606,-116.381"/>
</g>
<!-- &#45;4&#45;&gt;724 -->
<g id="edge30" class="edge"><title>&#45;4&#45;&gt;724</title>
<path fill="none" stroke="green" stroke-width="1.03572" d="M360.467,-166.647C328.964,-154.237 243.673,-120.641 198.513,-102.853"/>
<polygon fill="green" stroke="green" stroke-width="1.03572" points="199.583,-99.5126 188.996,-99.1041 197.018,-106.026 199.583,-99.5126"/>
</g>
<!-- &#45;4&#45;&gt;725 -->
<g id="edge8" class="edge"><title>&#45;4&#45;&gt;725</title>
<path fill="none" stroke="green" stroke-width="0.406614" d="M360.556,-170.348C325.088,-166.835 218.31,-153.546 139.558,-115.196 137.471,-114.18 135.395,-112.999 133.366,-111.717"/>
<polygon fill="green" stroke="green" stroke-width="0.406614" points="135.051,-108.618 124.881,-105.647 130.978,-114.312 135.051,-108.618"/>
</g>
<!-- &#45;4&#45;&gt;726 -->
<g id="edge20" class="edge"><title>&#45;4&#45;&gt;726</title>
<path fill="none" stroke="red" stroke-width="0.285956" d="M361.559,-163.307C346.881,-152.462 320.117,-132.574 297.558,-115.196 295.719,-113.78 293.824,-112.308 291.921,-110.821"/>
<polygon fill="red" stroke="red" stroke-width="0.285956" points="293.712,-107.777 283.689,-104.344 289.383,-113.278 293.712,-107.777"/>
</g>
<!-- 2362 -->
<g id="node15" class="node"><title>2362</title>
<ellipse fill="white" stroke="black" cx="467.558" cy="-90.4472" rx="25" ry="25"/>
<text text-anchor="middle" x="467.558" y="-88.2472" font-family="Times,serif" font-size="9.00">2362</text>
</g>
<!-- &#45;4&#45;&gt;2362 -->
<g id="edge12" class="edge"><title>&#45;4&#45;&gt;2362</title>
<path fill="none" stroke="green" stroke-width="0.103282" d="M382.367,-163.153C396.117,-151.58 421.626,-130.108 441.16,-113.666"/>
<polygon fill="green" stroke="green" stroke-width="0.103282" points="443.451,-116.313 448.847,-107.196 438.943,-110.958 443.451,-116.313"/>
</g>
<!-- &#45;5 -->
<g id="node5" class="node"><title>&#45;5</title>
<polygon fill="lightgray" stroke="black" points="455.558,-247.622 431.558,-247.622 431.558,-229.622 455.558,-229.622 455.558,-247.622"/>
<text text-anchor="middle" x="443.558" y="-236.422" font-family="Times,serif" font-size="9.00">&#45;5</text>
</g>
<!-- &#45;5&#45;&gt;0 -->
<g id="edge1" class="edge"><title>&#45;5&#45;&gt;0</title>
<path fill="none" stroke="red" stroke-width="0.181029" d="M451.228,-229.428C475.247,-202.781 544.894,-117.335 501.558,-65.6985 468.656,-26.4948 306.701,-18.1114 243.697,-16.3278"/>
<polygon fill="red" stroke="red" stroke-width="0.181029" points="243.552,-12.8232 233.468,-16.0727 243.378,-19.8211 243.552,-12.8232"/>
</g>
<!-- &#45;5&#45;&gt;723 -->
<g id="edge7" class="edge"><title>&#45;5&#45;&gt;723</title>
<path fill="none" stroke="red" stroke-width="0.232871" d="M431.315,-235.306C411.416,-230.879 372.206,-219.276 351.558,-193.622 335.259,-173.372 329.673,-143.963 327.921,-121.89"/>
<polygon fill="red" stroke="red" stroke-width="0.232871" points="331.405,-121.5 327.339,-111.716 324.416,-121.9 331.405,-121.5"/>
</g>
<!-- &#45;5&#45;&gt;727 -->
<g id="edge14" class="edge"><title>&#45;5&#45;&gt;727</title>
<path fill="none" stroke="red" stroke-width="0.385863" d="M431.423,-237.955C387.285,-238.767 231.731,-238.119 114.558,-193.622 112.943,-193.009 111.329,-192.295 109.735,-191.507"/>
<polygon fill="red" stroke="red" stroke-width="0.385863" points="111.346,-188.396 100.94,-186.405 107.833,-194.451 111.346,-188.396"/>
</g>
<!-- 728 -->
<g id="node14" class="node"><title>728</title>
<ellipse fill="white" stroke="black" cx="607.558" cy="-172.409" rx="21.4286" ry="21.4286"/>
<text text-anchor="middle" x="607.558" y="-170.209" font-family="Times,serif" font-size="9.00">728</text>
</g>
<!-- &#45;5&#45;&gt;728 -->
<g id="edge17" class="edge"><title>&#45;5&#45;&gt;728</title>
<path fill="none" stroke="red" stroke-width="0.251404" d="M455.595,-234.37C478.771,-227.924 530.974,-212.503 572.558,-193.622 575.253,-192.399 578.011,-191.029 580.737,-189.595"/>
<polygon fill="red" stroke="red" stroke-width="0.251404" points="582.705,-192.506 589.747,-184.591 579.306,-186.387 582.705,-192.506"/>
</g>
<!-- 724&#45;&gt;0 -->
<g id="edge13" class="edge"><title>724&#45;&gt;0</title>
<path fill="none" stroke="green" stroke-width="0.406895" d="M180.923,-72.3774C188.15,-61.5212 197.544,-47.4125 205.138,-36.0062"/>
<polygon fill="green" stroke="green" stroke-width="0.406895" points="208.138,-37.8153 210.767,-27.5517 202.311,-33.936 208.138,-37.8153"/>
</g>
<!-- 724&#45;&gt;2 -->
<g id="edge18" class="edge"><title>724&#45;&gt;2</title>
<path fill="none" stroke="red" stroke-width="0.458855" d="M161.832,-70.4939C157.874,-60.7832 153.024,-48.8849 148.861,-38.6729"/>
<polygon fill="red" stroke="red" stroke-width="0.458855" points="152.002,-37.1057 144.986,-29.1666 145.52,-39.748 152.002,-37.1057"/>
</g>
<!-- 725&#45;&gt;2 -->
<g id="edge4" class="edge"><title>725&#45;&gt;2</title>
<path fill="none" stroke="green" stroke-width="0.48472" d="M117.284,-70.4939C121.242,-60.7832 126.092,-48.8849 130.254,-38.6729"/>
<polygon fill="green" stroke="green" stroke-width="0.48472" points="133.596,-39.748 134.129,-29.1666 127.114,-37.1057 133.596,-39.748"/>
</g>
<!-- 726&#45;&gt;1 -->
<g id="edge29" class="edge"><title>726&#45;&gt;1</title>
<path fill="none" stroke="red" stroke-width="0.459839" d="M282.901,-75.2889C287.371,-71.7424 292.437,-68.2312 297.558,-65.6985 354.846,-37.3626 429.762,-24.1196 468.272,-18.8325"/>
<polygon fill="red" stroke="red" stroke-width="0.459839" points="469.096,-22.2548 478.56,-17.4924 468.192,-15.3135 469.096,-22.2548"/>
</g>
<!-- 726&#45;&gt;2 -->
<g id="edge15" class="edge"><title>726&#45;&gt;2</title>
<path fill="none" stroke="red" stroke-width="0.232304" d="M249.49,-79.0585C226.25,-65.6961 185.932,-42.5139 161.116,-28.2449"/>
<polygon fill="red" stroke="red" stroke-width="0.232304" points="162.543,-25.0279 152.129,-23.0775 159.054,-31.0963 162.543,-25.0279"/>
</g>
<!-- 727&#45;&gt;0 -->
<g id="edge25" class="edge"><title>727&#45;&gt;0</title>
<path fill="none" stroke="green" stroke-width="0.143591" d="M77.1583,-152.283C69.6853,-129.476 61.5822,-91.2417 79.5578,-65.6985 86.419,-55.9488 156.696,-34.0491 194.609,-22.8035"/>
<polygon fill="green" stroke="green" stroke-width="0.143591" points="195.759,-26.1135 204.365,-19.9331 193.784,-19.3981 195.759,-26.1135"/>
</g>
<!-- 727&#45;&gt;2 -->
<g id="edge21" class="edge"><title>727&#45;&gt;2</title>
<path fill="none" stroke="red" stroke-width="0.108217" d="M65.1523,-163.349C46.7776,-154.538 20.3051,-138.496 8.55781,-115.196 -1.34584,-95.5524 -3.92886,-83.8102 8.55781,-65.6985 32.4037,-31.1105 83.6661,-20.5026 114.521,-17.2616"/>
<polygon fill="red" stroke="red" stroke-width="0.108217" points="114.845,-20.7467 124.505,-16.3952 114.24,-13.7729 114.845,-20.7467"/>
</g>
<!-- 727&#45;&gt;725 -->
<g id="edge24" class="edge"><title>727&#45;&gt;725</title>
<path fill="none" stroke="green" stroke-width="0.419654" d="M90.6096,-152.053C93.5664,-142.595 97.186,-131.018 100.466,-120.526"/>
<polygon fill="green" stroke="green" stroke-width="0.419654" points="103.832,-121.492 103.475,-110.903 97.1504,-119.403 103.832,-121.492"/>
</g>
<!-- 728&#45;&gt;1 -->
<g id="edge27" class="edge"><title>728&#45;&gt;1</title>
<path fill="none" stroke="red" stroke-width="0.104497" d="M605.021,-151.183C601.283,-128.365 592.449,-91.1277 572.558,-65.6985 558.024,-47.1187 534.503,-33.5596 516.899,-25.3139"/>
<polygon fill="red" stroke="red" stroke-width="0.104497" points="517.891,-21.9254 507.33,-21.0751 515.056,-28.3255 517.891,-21.9254"/>
</g>
<!-- 2362&#45;&gt;1 -->
<g id="edge16" class="edge"><title>2362&#45;&gt;1</title>
<path fill="none" stroke="red" stroke-width="0.196515" d="M475.5,-66.9655C478.668,-57.997 482.311,-47.6843 485.492,-38.6813"/>
<polygon fill="red" stroke="red" stroke-width="0.196515" points="488.805,-39.8094 488.836,-29.2146 482.205,-37.4777 488.805,-39.8094"/>
</g>
</g>
</svg>
