<?xml version="1.0" encoding="UTF-8" standalone="no"?>
<!DOCTYPE svg PUBLIC "-//W3C//DTD SVG 1.1//EN"
 "http://www.w3.org/Graphics/SVG/1.1/DTD/svg11.dtd">
<!-- Generated by graphviz version 2.38.0 (20140413.2041)
 -->
<!-- Title: %3 Pages: 1 -->
<svg width="623pt" height="348pt"
 viewBox="0.00 0.00 623.50 348.19" xmlns="http://www.w3.org/2000/svg" xmlns:xlink="http://www.w3.org/1999/xlink">
<g id="graph0" class="graph" transform="scale(1 1) rotate(0) translate(4 344.191)">
<title>%3</title>
<polygon fill="white" stroke="none" points="-4,4 -4,-344.191 619.497,-344.191 619.497,4 -4,4"/>
<!-- &#45;1 -->
<g id="node1" class="node"><title>&#45;1</title>
<polygon fill="lightgray" stroke="black" points="253.749,-340.191 229.749,-340.191 229.749,-322.191 253.749,-322.191 253.749,-340.191"/>
<text text-anchor="middle" x="241.749" y="-328.991" font-family="Times,serif" font-size="9.00">&#45;1</text>
</g>
<!-- 0 -->
<g id="node5" class="node"><title>0</title>
<ellipse fill="lightblue" stroke="black" cx="209.749" cy="-175.945" rx="14.7" ry="14.7"/>
<text text-anchor="middle" x="209.749" y="-173.745" font-family="Times,serif" font-size="9.00">0</text>
</g>
<!-- &#45;1&#45;&gt;0 -->
<g id="edge3" class="edge"><title>&#45;1&#45;&gt;0</title>
<path fill="none" stroke="green" stroke-width="0.170339" d="M232.782,-322.13C224.473,-314.003 212.676,-300.626 207.749,-286.191 198.112,-257.958 201.07,-223.185 204.785,-200.562"/>
<polygon fill="green" stroke="green" stroke-width="0.170339" points="208.267,-200.98 206.618,-190.514 201.38,-199.724 208.267,-200.98"/>
</g>
<!-- 1091 -->
<g id="node8" class="node"><title>1091</title>
<ellipse fill="white" stroke="black" cx="408.749" cy="-261.442" rx="25" ry="25"/>
<text text-anchor="middle" x="408.749" y="-259.242" font-family="Times,serif" font-size="9.00">1091</text>
</g>
<!-- &#45;1&#45;&gt;1091 -->
<g id="edge23" class="edge"><title>&#45;1&#45;&gt;1091</title>
<path fill="none" stroke="green" stroke-width="0.238788" d="M254.07,-327.488C278.287,-321.891 333.408,-307.727 375.749,-286.191 377.542,-285.279 379.345,-284.276 381.133,-283.213"/>
<polygon fill="green" stroke="green" stroke-width="0.238788" points="383.366,-285.935 389.839,-277.547 379.548,-280.068 383.366,-285.935"/>
</g>
<!-- &#45;2 -->
<g id="node2" class="node"><title>&#45;2</title>
<polygon fill="lightgray" stroke="black" points="353.749,-340.191 329.749,-340.191 329.749,-322.191 353.749,-322.191 353.749,-340.191"/>
<text text-anchor="middle" x="341.749" y="-328.991" font-family="Times,serif" font-size="9.00">&#45;2</text>
</g>
<!-- &#45;2&#45;&gt;0 -->
<g id="edge14" class="edge"><title>&#45;2&#45;&gt;0</title>
<path fill="none" stroke="red" stroke-width="0.281938" d="M329.504,-328.32C308.251,-324.421 264.536,-313.41 240.749,-286.191 219.935,-262.375 213.034,-225.505 210.782,-201.296"/>
<polygon fill="red" stroke="red" stroke-width="0.281938" points="214.261,-200.874 210.041,-191.156 207.279,-201.384 214.261,-200.874"/>
</g>
<!-- 1 -->
<g id="node6" class="node"><title>1</title>
<ellipse fill="lightblue" stroke="black" cx="426.749" cy="-175.945" rx="14.7" ry="14.7"/>
<text text-anchor="middle" x="426.749" y="-173.745" font-family="Times,serif" font-size="9.00">1</text>
</g>
<!-- &#45;2&#45;&gt;1 -->
<g id="edge16" class="edge"><title>&#45;2&#45;&gt;1</title>
<path fill="none" stroke="red" stroke-width="0.721354" d="M353.757,-329.075C375.874,-326.3 422.625,-316.909 442.749,-286.191 460.12,-259.674 448.371,-221.827 437.875,-198.354"/>
<polygon fill="red" stroke="red" stroke-width="0.721354" points="441,-196.775 433.543,-189.25 434.679,-199.783 441,-196.775"/>
</g>
<!-- &#45;2&#45;&gt;1091 -->
<g id="edge18" class="edge"><title>&#45;2&#45;&gt;1091</title>
<path fill="none" stroke="red" stroke-width="0.869537" d="M349.698,-322.153C358.252,-313.503 372.279,-299.32 384.515,-286.947"/>
<polygon fill="red" stroke="red" stroke-width="0.869537" points="387.295,-289.114 391.838,-279.542 382.317,-284.191 387.295,-289.114"/>
</g>
<!-- 1089 -->
<g id="node12" class="node"><title>1089</title>
<ellipse fill="white" stroke="black" cx="274.749" cy="-261.442" rx="25" ry="25"/>
<text text-anchor="middle" x="274.749" y="-259.242" font-family="Times,serif" font-size="9.00">1089</text>
</g>
<!-- &#45;2&#45;&gt;1089 -->
<g id="edge24" class="edge"><title>&#45;2&#45;&gt;1089</title>
<path fill="none" stroke="green" stroke-width="0.553247" d="M333.8,-322.153C325.246,-313.503 311.219,-299.32 298.982,-286.947"/>
<polygon fill="green" stroke="green" stroke-width="0.553247" points="301.18,-284.191 291.66,-279.542 296.203,-289.114 301.18,-284.191"/>
</g>
<!-- &#45;3 -->
<g id="node3" class="node"><title>&#45;3</title>
<polygon fill="lightgray" stroke="black" points="465.749,-340.191 441.749,-340.191 441.749,-322.191 465.749,-322.191 465.749,-340.191"/>
<text text-anchor="middle" x="453.749" y="-328.991" font-family="Times,serif" font-size="9.00">&#45;3</text>
</g>
<!-- &#45;3&#45;&gt;1 -->
<g id="edge8" class="edge"><title>&#45;3&#45;&gt;1</title>
<path fill="none" stroke="green" stroke-width="0.162017" stroke-dasharray="1,5" d="M459.385,-321.88C464.8,-313.353 472.609,-299.49 475.749,-286.191 480.803,-264.781 483.156,-257.408 475.749,-236.693 469.656,-219.656 456.382,-203.987 445.185,-192.972"/>
<polygon fill="green" stroke="green" stroke-width="0.162017" points="447.571,-190.411 437.879,-186.131 442.786,-195.521 447.571,-190.411"/>
</g>
<!-- &#45;3&#45;&gt;1091 -->
<g id="edge6" class="edge"><title>&#45;3&#45;&gt;1091</title>
<path fill="none" stroke="green" stroke-width="0.243096" d="M448.41,-322.153C443.29,-314.444 435.25,-302.34 427.743,-291.039"/>
<polygon fill="green" stroke="green" stroke-width="0.243096" points="430.613,-289.033 422.165,-282.64 424.782,-292.906 430.613,-289.033"/>
</g>
<!-- 1092 -->
<g id="node9" class="node"><title>1092</title>
<ellipse fill="white" stroke="black" cx="130.749" cy="-261.442" rx="25" ry="25"/>
<text text-anchor="middle" x="130.749" y="-259.242" font-family="Times,serif" font-size="9.00">1092</text>
</g>
<!-- &#45;3&#45;&gt;1092 -->
<g id="edge28" class="edge"><title>&#45;3&#45;&gt;1092</title>
<path fill="none" stroke="green" stroke-width="0.411152" d="M441.731,-327.747C409.289,-321.143 317.224,-302.345 240.749,-286.191 215.286,-280.812 186.54,-274.601 164.821,-269.88"/>
<polygon fill="green" stroke="green" stroke-width="0.411152" points="165.284,-266.399 154.769,-267.693 163.796,-273.239 165.284,-266.399"/>
</g>
<!-- 1094 -->
<g id="node11" class="node"><title>1094</title>
<ellipse fill="white" stroke="black" cx="341.749" cy="-261.442" rx="25" ry="25"/>
<text text-anchor="middle" x="341.749" y="-259.242" font-family="Times,serif" font-size="9.00">1094</text>
</g>
<!-- &#45;3&#45;&gt;1094 -->
<g id="edge2" class="edge"><title>&#45;3&#45;&gt;1094</title>
<path fill="none" stroke="red" stroke-width="0.375534" d="M441.722,-324.049C426.015,-315.902 397.805,-300.839 374.749,-286.191 373.095,-285.141 371.413,-284.039 369.727,-282.909"/>
<polygon fill="red" stroke="red" stroke-width="0.375534" points="371.601,-279.95 361.386,-277.138 367.618,-285.706 371.601,-279.95"/>
</g>
<!-- 1090 -->
<g id="node13" class="node"><title>1090</title>
<ellipse fill="white" stroke="black" cx="519.749" cy="-175.945" rx="25" ry="25"/>
<text text-anchor="middle" x="519.749" y="-173.745" font-family="Times,serif" font-size="9.00">1090</text>
</g>
<!-- &#45;3&#45;&gt;1090 -->
<g id="edge25" class="edge"><title>&#45;3&#45;&gt;1090</title>
<path fill="none" stroke="red" stroke-width="0.119125" stroke-dasharray="1,5" d="M463.221,-322.061C472.15,-313.883 485.247,-300.468 492.749,-286.191 505.143,-262.601 511.995,-233.135 515.691,-210.752"/>
<polygon fill="red" stroke="red" stroke-width="0.119125" points="519.176,-211.115 517.22,-200.702 512.256,-210.062 519.176,-211.115"/>
</g>
<!-- 1258 -->
<g id="node14" class="node"><title>1258</title>
<ellipse fill="white" stroke="black" cx="590.749" cy="-261.442" rx="25" ry="25"/>
<text text-anchor="middle" x="590.749" y="-259.242" font-family="Times,serif" font-size="9.00">1258</text>
</g>
<!-- &#45;3&#45;&gt;1258 -->
<g id="edge21" class="edge"><title>&#45;3&#45;&gt;1258</title>
<path fill="none" stroke="green" stroke-width="0.4626" d="M466.051,-325.25C484.851,-317.57 521.712,-302 551.749,-286.191 555.028,-284.465 558.411,-282.577 561.749,-280.644"/>
<polygon fill="green" stroke="green" stroke-width="0.4626" points="563.58,-283.627 570.381,-275.504 559.999,-277.613 563.58,-283.627"/>
</g>
<!-- &#45;4 -->
<g id="node4" class="node"><title>&#45;4</title>
<polygon fill="lightgray" stroke="black" points="115.749,-340.191 91.7487,-340.191 91.7487,-322.191 115.749,-322.191 115.749,-340.191"/>
<text text-anchor="middle" x="103.749" y="-328.991" font-family="Times,serif" font-size="9.00">&#45;4</text>
</g>
<!-- &#45;4&#45;&gt;0 -->
<g id="edge9" class="edge"><title>&#45;4&#45;&gt;0</title>
<path fill="none" stroke="red" stroke-width="0.451977" d="M100.168,-321.958C93.2667,-304.721 80.2013,-264.161 96.7487,-236.693 115.856,-204.977 158.058,-189.223 185.134,-182.097"/>
<polygon fill="red" stroke="red" stroke-width="0.451977" points="186.134,-185.456 195.027,-179.698 184.484,-178.653 186.134,-185.456"/>
</g>
<!-- &#45;4&#45;&gt;1092 -->
<g id="edge17" class="edge"><title>&#45;4&#45;&gt;1092</title>
<path fill="none" stroke="green" stroke-width="0.27116" d="M106.952,-322.153C109.754,-315.122 114.013,-304.435 118.158,-294.036"/>
<polygon fill="green" stroke="green" stroke-width="0.27116" points="121.435,-295.265 121.886,-284.68 114.933,-292.674 121.435,-295.265"/>
</g>
<!-- 1093 -->
<g id="node10" class="node"><title>1093</title>
<ellipse fill="white" stroke="black" cx="24.7487" cy="-261.442" rx="25" ry="25"/>
<text text-anchor="middle" x="24.7487" y="-259.242" font-family="Times,serif" font-size="9.00">1093</text>
</g>
<!-- &#45;4&#45;&gt;1093 -->
<g id="edge1" class="edge"><title>&#45;4&#45;&gt;1093</title>
<path fill="none" stroke="red" stroke-width="0.388503" d="M94.3762,-322.153C83.7547,-313.044 65.9776,-297.799 51.0453,-284.994"/>
<polygon fill="red" stroke="red" stroke-width="0.388503" points="52.9751,-282.038 43.1057,-278.185 48.4182,-287.351 52.9751,-282.038"/>
</g>
<!-- &#45;4&#45;&gt;1094 -->
<g id="edge12" class="edge"><title>&#45;4&#45;&gt;1094</title>
<path fill="none" stroke="green" stroke-width="0.131156" d="M115.835,-329.331C148.349,-326.658 239.875,-316.751 308.749,-286.191 310.588,-285.375 312.426,-284.446 314.241,-283.44"/>
<polygon fill="green" stroke="green" stroke-width="0.131156" points="316.413,-286.21 323.02,-277.927 312.69,-280.282 316.413,-286.21"/>
</g>
<!-- 2 -->
<g id="node7" class="node"><title>2</title>
<ellipse fill="lightblue" stroke="black" cx="274.749" cy="-14.8492" rx="14.7" ry="14.7"/>
<text text-anchor="middle" x="274.749" y="-12.6492" font-family="Times,serif" font-size="9.00">2</text>
</g>
<!-- 1091&#45;&gt;0 -->
<g id="edge4" class="edge"><title>1091&#45;&gt;0</title>
<path fill="none" stroke="green" stroke-width="0.29831" d="M389.787,-245.437C385.332,-242.301 380.495,-239.193 375.749,-236.693 327.816,-211.455 266.884,-192.572 233.791,-183.309"/>
<polygon fill="green" stroke="green" stroke-width="0.29831" points="234.646,-179.914 224.076,-180.643 232.794,-186.665 234.646,-179.914"/>
</g>
<!-- 1091&#45;&gt;1 -->
<g id="edge20" class="edge"><title>1091&#45;&gt;1</title>
<path fill="none" stroke="red" stroke-width="0.796485" d="M413.763,-237.183C416.191,-225.921 419.104,-212.408 421.555,-201.037"/>
<polygon fill="red" stroke="red" stroke-width="0.796485" points="425.047,-201.448 423.733,-190.935 418.204,-199.973 425.047,-201.448"/>
</g>
<!-- 1092&#45;&gt;0 -->
<g id="edge5" class="edge"><title>1092&#45;&gt;0</title>
<path fill="none" stroke="green" stroke-width="0.276783" d="M147.503,-242.735C160.83,-228.648 179.398,-209.024 192.781,-194.879"/>
<polygon fill="green" stroke="green" stroke-width="0.276783" points="195.652,-196.936 199.983,-187.267 190.567,-192.125 195.652,-196.936"/>
</g>
<!-- 1092&#45;&gt;2 -->
<g id="edge10" class="edge"><title>1092&#45;&gt;2</title>
<path fill="none" stroke="red" stroke-width="0.229135" d="M140.782,-238.703C151.299,-216.374 168.642,-180.795 185.749,-151.196 210.169,-108.941 242.379,-61.7785 260.596,-35.7791"/>
<polygon fill="red" stroke="red" stroke-width="0.229135" points="263.524,-37.6996 266.42,-27.5082 257.801,-33.6693 263.524,-37.6996"/>
</g>
<!-- 1093&#45;&gt;0 -->
<g id="edge26" class="edge"><title>1093&#45;&gt;0</title>
<path fill="none" stroke="red" stroke-width="0.35951" d="M45.0467,-247.246C50.9675,-243.628 57.5218,-239.839 63.7487,-236.693 105.552,-215.579 156.651,-196.014 185.976,-185.348"/>
<polygon fill="red" stroke="red" stroke-width="0.35951" points="187.513,-188.515 195.737,-181.835 185.142,-181.929 187.513,-188.515"/>
</g>
<!-- 1093&#45;&gt;2 -->
<g id="edge30" class="edge"><title>1093&#45;&gt;2</title>
<path fill="none" stroke="green" stroke-width="0.25119" d="M40.1111,-241.583C70.0191,-205.422 138.998,-124.693 205.749,-65.6985 221.009,-52.2112 239.835,-38.7988 253.966,-29.2894"/>
<polygon fill="green" stroke="green" stroke-width="0.25119" points="256.086,-32.0834 262.489,-23.6423 252.219,-26.248 256.086,-32.0834"/>
</g>
<!-- 1094&#45;&gt;0 -->
<g id="edge7" class="edge"><title>1094&#45;&gt;0</title>
<path fill="none" stroke="green" stroke-width="0.433784" d="M322.037,-245.862C317.705,-242.769 313.108,-239.571 308.749,-236.693 282.569,-219.414 251.466,-200.969 231.202,-189.218"/>
<polygon fill="green" stroke="green" stroke-width="0.433784" points="232.864,-186.136 222.453,-184.171 229.366,-192.2 232.864,-186.136"/>
</g>
<!-- 1094&#45;&gt;1 -->
<g id="edge19" class="edge"><title>1094&#45;&gt;1</title>
<path fill="none" stroke="green" stroke-width="0.239487" d="M358.95,-243.545C373.521,-229.232 394.33,-208.79 409.043,-194.337"/>
<polygon fill="green" stroke="green" stroke-width="0.239487" points="411.83,-196.505 416.512,-187.001 406.925,-191.512 411.83,-196.505"/>
</g>
<!-- 1089&#45;&gt;0 -->
<g id="edge11" class="edge"><title>1089&#45;&gt;0</title>
<path fill="none" stroke="red" stroke-width="0.210475" d="M259.999,-241.495C249.552,-228.076 235.576,-210.122 225.015,-196.555"/>
<polygon fill="red" stroke="red" stroke-width="0.210475" points="227.544,-194.107 218.64,-188.366 222.021,-198.407 227.544,-194.107"/>
</g>
<!-- 1089&#45;&gt;2 -->
<g id="edge15" class="edge"><title>1089&#45;&gt;2</title>
<path fill="none" stroke="red" stroke-width="0.495079" d="M274.749,-236.544C274.749,-189.804 274.749,-86.7736 274.749,-39.9063"/>
<polygon fill="red" stroke="red" stroke-width="0.495079" points="278.249,-39.7752 274.749,-29.7753 271.249,-39.7753 278.249,-39.7752"/>
</g>
<!-- 1090&#45;&gt;2 -->
<g id="edge27" class="edge"><title>1090&#45;&gt;2</title>
<path fill="none" stroke="red" stroke-width="0.156389" stroke-dasharray="1,5" d="M506.539,-154.748C489.624,-130.377 458.115,-89.6949 421.749,-65.6985 383.117,-40.2072 330.156,-26.4827 299.481,-20.21"/>
<polygon fill="red" stroke="red" stroke-width="0.156389" points="300.104,-16.7657 289.62,-18.295 298.769,-23.6374 300.104,-16.7657"/>
</g>
<!-- 1233 -->
<g id="node15" class="node"><title>1233</title>
<ellipse fill="white" stroke="black" cx="387.749" cy="-90.4472" rx="25" ry="25"/>
<text text-anchor="middle" x="387.749" y="-88.2472" font-family="Times,serif" font-size="9.00">1233</text>
</g>
<!-- 1090&#45;&gt;1233 -->
<g id="edge13" class="edge"><title>1090&#45;&gt;1233</title>
<path fill="none" stroke="green" stroke-width="0.384619" d="M499.124,-161.898C477.038,-147.928 441.813,-125.646 416.898,-109.886"/>
<polygon fill="green" stroke="green" stroke-width="0.384619" points="418.551,-106.79 408.229,-104.402 414.809,-112.706 418.551,-106.79"/>
</g>
<!-- 1258&#45;&gt;1090 -->
<g id="edge29" class="edge"><title>1258&#45;&gt;1090</title>
<path fill="none" stroke="red" stroke-width="0.351228" d="M574.992,-241.911C565.34,-230.561 552.833,-215.853 542.161,-203.302"/>
<polygon fill="red" stroke="red" stroke-width="0.351228" points="544.606,-200.775 535.462,-195.424 539.273,-205.309 544.606,-200.775"/>
</g>
<!-- 1233&#45;&gt;2 -->
<g id="edge22" class="edge"><title>1233&#45;&gt;2</title>
<path fill="none" stroke="green" stroke-width="0.238272" d="M367.285,-76.1192C346.878,-62.828 315.707,-42.5259 295.277,-29.2198"/>
<polygon fill="green" stroke="green" stroke-width="0.238272" points="297.014,-26.1736 286.724,-23.6488 293.193,-32.0392 297.014,-26.1736"/>
</g>
</g>
</svg>
